<?xml version="1.0" standalone="no"?><!DOCTYPE svg PUBLIC "-//W3C//DTD SVG 1.1//EN" "http://www.w3.org/Graphics/SVG/1.1/DTD/svg11.dtd"><svg t="1638193099291" class="icon" viewBox="0 0 1024 1024" version="1.1" xmlns="http://www.w3.org/2000/svg" p-id="1471" xmlns:xlink="http://www.w3.org/1999/xlink" width="200" height="200"><defs><style type="text/css"></style></defs><path d="M915.518798 468.832851 555.774481 468.832851 555.774481 109.071138c0-24.350594-19.744693-44.093241-44.094264-44.093241-24.350594 0-44.094264 19.742646-44.094264 44.093241l0 359.761714L107.840612 468.832851c-24.350594 0-44.093241 19.712971-44.093241 44.092217 0 24.379247 19.742646 44.093241 44.093241 44.093241l359.745341 0 0 359.746364c0 24.320918 19.74367 44.093241 44.094264 44.093241 24.349571 0 44.094264-19.772322 44.094264-44.093241L555.774481 557.01831l359.744317 0c24.352641 0 44.094264-19.715017 44.094264-44.093241C959.613062 488.545822 939.871439 468.832851 915.518798 468.832851z" p-id="1472" fill="#606266"></path></svg>